<mxfile host="app.diagrams.net" modified="2023-09-09T15:21:59.926Z" agent="Mozilla/5.0 (Windows NT 10.0; Win64; x64) AppleWebKit/537.36 (KHTML, like Gecko) Chrome/116.0.0.0 Safari/537.36 Edg/116.0.1938.76" etag="DwAumlHWb0RJ0RuQvVk5" version="21.7.2" type="device" pages="6">
  <diagram id="hD09jQqH0ERCBeJgtIus" name="halaman beranda">
    <mxGraphModel dx="492" dy="740" grid="1" gridSize="10" guides="1" tooltips="1" connect="1" arrows="1" fold="1" page="1" pageScale="1" pageWidth="850" pageHeight="1100" math="0" shadow="0">
      <root>
        <mxCell id="0" />
        <mxCell id="1" parent="0" />
        <mxCell id="AZKspSL3-IPZaGYiQ-es-28" value="" style="rounded=0;whiteSpace=wrap;html=1;strokeColor=#4D4D4D;" parent="1" vertex="1">
          <mxGeometry x="1210" y="30" width="1050" height="820" as="geometry" />
        </mxCell>
        <mxCell id="AZKspSL3-IPZaGYiQ-es-20" value="" style="verticalLabelPosition=bottom;shadow=0;dashed=0;align=center;html=1;verticalAlign=top;strokeWidth=1;shape=mxgraph.mockup.graphics.simpleIcon;strokeColor=#999999;fillColor=#ffffff;rounded=0;labelBackgroundColor=none;fontFamily=Verdana;fontSize=12;fontColor=#000000;" parent="1" vertex="1">
          <mxGeometry x="1210" y="120" width="1050" height="200" as="geometry" />
        </mxCell>
        <mxCell id="AZKspSL3-IPZaGYiQ-es-33" value="" style="rounded=0;whiteSpace=wrap;html=1;strokeColor=#B3B3B3;fillColor=#CCCCCC;" parent="1" vertex="1">
          <mxGeometry x="1210" y="30" width="1050" height="90" as="geometry" />
        </mxCell>
        <mxCell id="AZKspSL3-IPZaGYiQ-es-36" value="" style="rounded=0;whiteSpace=wrap;html=1;strokeColor=#808080;" parent="1" vertex="1">
          <mxGeometry x="1420" y="320" width="610" height="530" as="geometry" />
        </mxCell>
        <mxCell id="AZKspSL3-IPZaGYiQ-es-73" value="" style="group" parent="1" vertex="1" connectable="0">
          <mxGeometry x="1470" y="530" width="520" height="170" as="geometry" />
        </mxCell>
        <mxCell id="AZKspSL3-IPZaGYiQ-es-64" value="" style="rounded=1;whiteSpace=wrap;html=1;strokeColor=none;fillColor=#CCCCCC;arcSize=3;" parent="AZKspSL3-IPZaGYiQ-es-73" vertex="1">
          <mxGeometry x="60" width="460" height="170" as="geometry" />
        </mxCell>
        <mxCell id="AZKspSL3-IPZaGYiQ-es-66" value="" style="rounded=1;whiteSpace=wrap;html=1;strokeColor=none;fillColor=#CCCCCC;arcSize=50;" parent="AZKspSL3-IPZaGYiQ-es-73" vertex="1">
          <mxGeometry width="40" height="50" as="geometry" />
        </mxCell>
        <mxCell id="AZKspSL3-IPZaGYiQ-es-72" value="" style="rounded=1;whiteSpace=wrap;html=1;strokeColor=none;fillColor=#999999;arcSize=17;" parent="AZKspSL3-IPZaGYiQ-es-73" vertex="1">
          <mxGeometry x="80" y="130" width="300" height="30" as="geometry" />
        </mxCell>
        <mxCell id="AZKspSL3-IPZaGYiQ-es-74" value="" style="group" parent="1" vertex="1" connectable="0">
          <mxGeometry x="1260" y="410" width="120" height="270" as="geometry" />
        </mxCell>
        <mxCell id="AZKspSL3-IPZaGYiQ-es-40" value="" style="rounded=1;whiteSpace=wrap;html=1;strokeColor=none;fillColor=#999999;" parent="AZKspSL3-IPZaGYiQ-es-74" vertex="1">
          <mxGeometry x="30" width="90" height="20" as="geometry" />
        </mxCell>
        <mxCell id="AZKspSL3-IPZaGYiQ-es-41" value="" style="rounded=1;whiteSpace=wrap;html=1;strokeColor=none;fillColor=#999999;" parent="AZKspSL3-IPZaGYiQ-es-74" vertex="1">
          <mxGeometry width="20" height="20" as="geometry" />
        </mxCell>
        <mxCell id="AZKspSL3-IPZaGYiQ-es-49" value="" style="rounded=1;whiteSpace=wrap;html=1;strokeColor=none;fillColor=#999999;" parent="AZKspSL3-IPZaGYiQ-es-74" vertex="1">
          <mxGeometry x="30" y="50" width="90" height="20" as="geometry" />
        </mxCell>
        <mxCell id="AZKspSL3-IPZaGYiQ-es-50" value="" style="rounded=1;whiteSpace=wrap;html=1;strokeColor=none;fillColor=#999999;" parent="AZKspSL3-IPZaGYiQ-es-74" vertex="1">
          <mxGeometry y="50" width="20" height="20" as="geometry" />
        </mxCell>
        <mxCell id="AZKspSL3-IPZaGYiQ-es-51" value="" style="rounded=1;whiteSpace=wrap;html=1;strokeColor=none;fillColor=#999999;" parent="AZKspSL3-IPZaGYiQ-es-74" vertex="1">
          <mxGeometry x="30" y="100" width="90" height="20" as="geometry" />
        </mxCell>
        <mxCell id="AZKspSL3-IPZaGYiQ-es-52" value="" style="rounded=1;whiteSpace=wrap;html=1;strokeColor=none;fillColor=#999999;" parent="AZKspSL3-IPZaGYiQ-es-74" vertex="1">
          <mxGeometry y="100" width="20" height="20" as="geometry" />
        </mxCell>
        <mxCell id="AZKspSL3-IPZaGYiQ-es-53" value="" style="rounded=1;whiteSpace=wrap;html=1;strokeColor=none;fillColor=#999999;" parent="AZKspSL3-IPZaGYiQ-es-74" vertex="1">
          <mxGeometry x="30" y="250" width="90" height="20" as="geometry" />
        </mxCell>
        <mxCell id="AZKspSL3-IPZaGYiQ-es-54" value="" style="rounded=1;whiteSpace=wrap;html=1;strokeColor=none;fillColor=#999999;" parent="AZKspSL3-IPZaGYiQ-es-74" vertex="1">
          <mxGeometry y="250" width="20" height="20" as="geometry" />
        </mxCell>
        <mxCell id="AZKspSL3-IPZaGYiQ-es-55" value="" style="rounded=1;whiteSpace=wrap;html=1;strokeColor=none;fillColor=#999999;" parent="AZKspSL3-IPZaGYiQ-es-74" vertex="1">
          <mxGeometry x="30" y="150" width="90" height="20" as="geometry" />
        </mxCell>
        <mxCell id="AZKspSL3-IPZaGYiQ-es-56" value="" style="rounded=1;whiteSpace=wrap;html=1;strokeColor=none;fillColor=#999999;" parent="AZKspSL3-IPZaGYiQ-es-74" vertex="1">
          <mxGeometry x="30" y="200" width="90" height="20" as="geometry" />
        </mxCell>
        <mxCell id="AZKspSL3-IPZaGYiQ-es-60" value="" style="rounded=1;whiteSpace=wrap;html=1;strokeColor=none;fillColor=#999999;" parent="1" vertex="1">
          <mxGeometry x="2070" y="380" width="160" height="30" as="geometry" />
        </mxCell>
        <mxCell id="AZKspSL3-IPZaGYiQ-es-61" value="" style="rounded=1;whiteSpace=wrap;html=1;strokeColor=none;fillColor=#B3B3B3;arcSize=3;container=0;" parent="1" vertex="1">
          <mxGeometry x="2070" y="440" width="160" height="110" as="geometry" />
        </mxCell>
        <mxCell id="AZKspSL3-IPZaGYiQ-es-62" value="" style="rounded=1;whiteSpace=wrap;html=1;strokeColor=none;fillColor=#999999;arcSize=3;" parent="1" vertex="1">
          <mxGeometry x="2070" y="580" width="160" height="170" as="geometry" />
        </mxCell>
        <mxCell id="AZKspSL3-IPZaGYiQ-es-63" value="" style="rounded=1;whiteSpace=wrap;html=1;strokeColor=none;fillColor=#E6E6E6;arcSize=0;" parent="1" vertex="1">
          <mxGeometry x="2130" y="580" width="100" height="30" as="geometry" />
        </mxCell>
        <mxCell id="AZKspSL3-IPZaGYiQ-es-78" value="" style="rounded=1;whiteSpace=wrap;html=1;strokeColor=none;fillColor=#999999;" parent="1" vertex="1">
          <mxGeometry x="1490" y="60" width="400" height="40" as="geometry" />
        </mxCell>
        <mxCell id="AZKspSL3-IPZaGYiQ-es-79" value="" style="rounded=1;whiteSpace=wrap;html=1;strokeColor=none;fillColor=#999999;arcSize=50;" parent="1" vertex="1">
          <mxGeometry x="2060" y="60" width="80" height="40" as="geometry" />
        </mxCell>
        <mxCell id="AZKspSL3-IPZaGYiQ-es-85" value="" style="rounded=1;whiteSpace=wrap;html=1;strokeColor=none;fillColor=#CCCCCC;arcSize=8;container=0;" parent="1" vertex="1">
          <mxGeometry x="1460" y="380" width="540" height="90" as="geometry" />
        </mxCell>
        <mxCell id="AZKspSL3-IPZaGYiQ-es-83" value="" style="rounded=1;whiteSpace=wrap;html=1;strokeColor=none;fillColor=#B3B3B3;arcSize=17;container=0;" parent="1" vertex="1">
          <mxGeometry x="1520" y="405" width="470" height="40" as="geometry" />
        </mxCell>
        <mxCell id="AZKspSL3-IPZaGYiQ-es-84" value="" style="rounded=1;whiteSpace=wrap;html=1;strokeColor=none;fillColor=#B3B3B3;arcSize=31;container=0;" parent="1" vertex="1">
          <mxGeometry x="1470" y="405" width="40" height="40" as="geometry" />
        </mxCell>
      </root>
    </mxGraphModel>
  </diagram>
  <diagram id="E0Js30wyCuAVZdPa75kY" name="halaman profile">
    <mxGraphModel dx="1330" dy="1203" grid="1" gridSize="10" guides="1" tooltips="1" connect="1" arrows="1" fold="1" page="1" pageScale="1" pageWidth="850" pageHeight="1100" math="0" shadow="0">
      <root>
        <mxCell id="0" />
        <mxCell id="1" parent="0" />
        <mxCell id="IMUXMSNeako0PYxyaCCG-1" value="" style="rounded=0;whiteSpace=wrap;html=1;strokeColor=#4D4D4D;" vertex="1" parent="1">
          <mxGeometry x="1210" y="30" width="1050" height="820" as="geometry" />
        </mxCell>
        <mxCell id="IMUXMSNeako0PYxyaCCG-2" value="" style="verticalLabelPosition=bottom;shadow=0;dashed=0;align=center;html=1;verticalAlign=top;strokeWidth=1;shape=mxgraph.mockup.graphics.simpleIcon;strokeColor=#999999;fillColor=#ffffff;rounded=0;labelBackgroundColor=none;fontFamily=Verdana;fontSize=12;fontColor=#000000;" vertex="1" parent="1">
          <mxGeometry x="1210" y="120" width="1050" height="200" as="geometry" />
        </mxCell>
        <mxCell id="IMUXMSNeako0PYxyaCCG-3" value="" style="rounded=0;whiteSpace=wrap;html=1;strokeColor=#B3B3B3;fillColor=#CCCCCC;" vertex="1" parent="1">
          <mxGeometry x="1210" y="30" width="1050" height="90" as="geometry" />
        </mxCell>
        <mxCell id="IMUXMSNeako0PYxyaCCG-4" value="" style="rounded=0;whiteSpace=wrap;html=1;strokeColor=#808080;" vertex="1" parent="1">
          <mxGeometry x="1420" y="320" width="610" height="530" as="geometry" />
        </mxCell>
        <mxCell id="IMUXMSNeako0PYxyaCCG-9" value="" style="group" vertex="1" connectable="0" parent="1">
          <mxGeometry x="1260" y="410" width="120" height="270" as="geometry" />
        </mxCell>
        <mxCell id="IMUXMSNeako0PYxyaCCG-10" value="" style="rounded=1;whiteSpace=wrap;html=1;strokeColor=none;fillColor=#999999;" vertex="1" parent="IMUXMSNeako0PYxyaCCG-9">
          <mxGeometry x="30" width="90" height="20" as="geometry" />
        </mxCell>
        <mxCell id="IMUXMSNeako0PYxyaCCG-11" value="" style="rounded=1;whiteSpace=wrap;html=1;strokeColor=none;fillColor=#999999;" vertex="1" parent="IMUXMSNeako0PYxyaCCG-9">
          <mxGeometry width="20" height="20" as="geometry" />
        </mxCell>
        <mxCell id="IMUXMSNeako0PYxyaCCG-12" value="" style="rounded=1;whiteSpace=wrap;html=1;strokeColor=none;fillColor=#999999;" vertex="1" parent="IMUXMSNeako0PYxyaCCG-9">
          <mxGeometry x="30" y="50" width="90" height="20" as="geometry" />
        </mxCell>
        <mxCell id="IMUXMSNeako0PYxyaCCG-13" value="" style="rounded=1;whiteSpace=wrap;html=1;strokeColor=none;fillColor=#999999;" vertex="1" parent="IMUXMSNeako0PYxyaCCG-9">
          <mxGeometry y="50" width="20" height="20" as="geometry" />
        </mxCell>
        <mxCell id="IMUXMSNeako0PYxyaCCG-14" value="" style="rounded=1;whiteSpace=wrap;html=1;strokeColor=none;fillColor=#999999;" vertex="1" parent="IMUXMSNeako0PYxyaCCG-9">
          <mxGeometry x="30" y="100" width="90" height="20" as="geometry" />
        </mxCell>
        <mxCell id="IMUXMSNeako0PYxyaCCG-15" value="" style="rounded=1;whiteSpace=wrap;html=1;strokeColor=none;fillColor=#999999;" vertex="1" parent="IMUXMSNeako0PYxyaCCG-9">
          <mxGeometry y="100" width="20" height="20" as="geometry" />
        </mxCell>
        <mxCell id="IMUXMSNeako0PYxyaCCG-16" value="" style="rounded=1;whiteSpace=wrap;html=1;strokeColor=none;fillColor=#999999;" vertex="1" parent="IMUXMSNeako0PYxyaCCG-9">
          <mxGeometry x="30" y="250" width="90" height="20" as="geometry" />
        </mxCell>
        <mxCell id="IMUXMSNeako0PYxyaCCG-17" value="" style="rounded=1;whiteSpace=wrap;html=1;strokeColor=none;fillColor=#999999;" vertex="1" parent="IMUXMSNeako0PYxyaCCG-9">
          <mxGeometry y="250" width="20" height="20" as="geometry" />
        </mxCell>
        <mxCell id="IMUXMSNeako0PYxyaCCG-18" value="" style="rounded=1;whiteSpace=wrap;html=1;strokeColor=none;fillColor=#999999;" vertex="1" parent="IMUXMSNeako0PYxyaCCG-9">
          <mxGeometry x="30" y="150" width="90" height="20" as="geometry" />
        </mxCell>
        <mxCell id="IMUXMSNeako0PYxyaCCG-19" value="" style="rounded=1;whiteSpace=wrap;html=1;strokeColor=none;fillColor=#999999;" vertex="1" parent="IMUXMSNeako0PYxyaCCG-9">
          <mxGeometry x="30" y="200" width="90" height="20" as="geometry" />
        </mxCell>
        <mxCell id="IMUXMSNeako0PYxyaCCG-20" value="" style="rounded=1;whiteSpace=wrap;html=1;strokeColor=none;fillColor=#999999;" vertex="1" parent="1">
          <mxGeometry x="2070" y="380" width="160" height="30" as="geometry" />
        </mxCell>
        <mxCell id="IMUXMSNeako0PYxyaCCG-21" value="" style="rounded=1;whiteSpace=wrap;html=1;strokeColor=none;fillColor=#B3B3B3;arcSize=3;container=0;" vertex="1" parent="1">
          <mxGeometry x="2070" y="440" width="160" height="110" as="geometry" />
        </mxCell>
        <mxCell id="IMUXMSNeako0PYxyaCCG-22" value="" style="rounded=1;whiteSpace=wrap;html=1;strokeColor=none;fillColor=#999999;arcSize=3;" vertex="1" parent="1">
          <mxGeometry x="2070" y="580" width="160" height="170" as="geometry" />
        </mxCell>
        <mxCell id="IMUXMSNeako0PYxyaCCG-23" value="" style="rounded=1;whiteSpace=wrap;html=1;strokeColor=none;fillColor=#E6E6E6;arcSize=0;" vertex="1" parent="1">
          <mxGeometry x="2130" y="580" width="100" height="30" as="geometry" />
        </mxCell>
        <mxCell id="IMUXMSNeako0PYxyaCCG-24" value="" style="rounded=1;whiteSpace=wrap;html=1;strokeColor=none;fillColor=#999999;" vertex="1" parent="1">
          <mxGeometry x="1490" y="60" width="400" height="40" as="geometry" />
        </mxCell>
        <mxCell id="IMUXMSNeako0PYxyaCCG-25" value="" style="rounded=1;whiteSpace=wrap;html=1;strokeColor=none;fillColor=#999999;arcSize=50;" vertex="1" parent="1">
          <mxGeometry x="2060" y="60" width="80" height="40" as="geometry" />
        </mxCell>
        <mxCell id="IMUXMSNeako0PYxyaCCG-26" value="" style="rounded=1;whiteSpace=wrap;html=1;strokeColor=none;fillColor=#CCCCCC;arcSize=2;container=0;" vertex="1" parent="1">
          <mxGeometry x="1455" y="470" width="540" height="350" as="geometry" />
        </mxCell>
        <mxCell id="IMUXMSNeako0PYxyaCCG-27" value="" style="rounded=1;whiteSpace=wrap;html=1;strokeColor=none;fillColor=#B3B3B3;arcSize=17;container=0;" vertex="1" parent="1">
          <mxGeometry x="1450" y="350" width="530" height="40" as="geometry" />
        </mxCell>
        <mxCell id="IMUXMSNeako0PYxyaCCG-28" value="" style="rounded=1;whiteSpace=wrap;html=1;strokeColor=none;fillColor=#B3B3B3;arcSize=31;container=0;" vertex="1" parent="1">
          <mxGeometry x="1455" y="410" width="40" height="40" as="geometry" />
        </mxCell>
        <mxCell id="IMUXMSNeako0PYxyaCCG-29" value="" style="rounded=1;whiteSpace=wrap;html=1;strokeColor=none;fillColor=#999999;arcSize=50;" vertex="1" parent="1">
          <mxGeometry x="1400" y="210" width="80" height="80" as="geometry" />
        </mxCell>
        <mxCell id="IMUXMSNeako0PYxyaCCG-31" value="" style="rounded=1;whiteSpace=wrap;html=1;strokeColor=none;fillColor=#B3B3B3;arcSize=17;container=0;" vertex="1" parent="1">
          <mxGeometry x="1490" y="225" width="80" height="20" as="geometry" />
        </mxCell>
        <mxCell id="IMUXMSNeako0PYxyaCCG-32" value="" style="rounded=1;whiteSpace=wrap;html=1;strokeColor=none;fillColor=#B3B3B3;arcSize=17;container=0;" vertex="1" parent="1">
          <mxGeometry x="1490" y="255" width="50" height="20" as="geometry" />
        </mxCell>
        <mxCell id="IMUXMSNeako0PYxyaCCG-33" value="" style="rounded=1;whiteSpace=wrap;html=1;strokeColor=none;fillColor=#B3B3B3;arcSize=17;container=0;" vertex="1" parent="1">
          <mxGeometry x="2010" y="275" width="20" height="20" as="geometry" />
        </mxCell>
        <mxCell id="IMUXMSNeako0PYxyaCCG-34" value="" style="rounded=1;whiteSpace=wrap;html=1;strokeColor=none;fillColor=#B3B3B3;arcSize=17;container=0;" vertex="1" parent="1">
          <mxGeometry x="2040" y="275" width="20" height="20" as="geometry" />
        </mxCell>
        <mxCell id="IMUXMSNeako0PYxyaCCG-35" value="" style="rounded=1;whiteSpace=wrap;html=1;strokeColor=none;fillColor=#B3B3B3;arcSize=17;container=0;" vertex="1" parent="1">
          <mxGeometry x="2070" y="275" width="20" height="20" as="geometry" />
        </mxCell>
        <mxCell id="IMUXMSNeako0PYxyaCCG-36" value="" style="rounded=1;whiteSpace=wrap;html=1;strokeColor=none;fillColor=#B3B3B3;arcSize=17;container=0;" vertex="1" parent="1">
          <mxGeometry x="2105" y="275" width="20" height="20" as="geometry" />
        </mxCell>
      </root>
    </mxGraphModel>
  </diagram>
  <diagram name="halaman grup" id="5uoD-yhtU6c1XY7j2oJO">
    <mxGraphModel dx="791" dy="2474" grid="1" gridSize="10" guides="1" tooltips="1" connect="1" arrows="1" fold="1" page="1" pageScale="1" pageWidth="850" pageHeight="1100" math="0" shadow="0">
      <root>
        <mxCell id="UD2QmH18qQvcPj85lfm4-0" />
        <mxCell id="UD2QmH18qQvcPj85lfm4-1" parent="UD2QmH18qQvcPj85lfm4-0" />
        <mxCell id="UD2QmH18qQvcPj85lfm4-2" value="" style="rounded=0;whiteSpace=wrap;html=1;strokeColor=#4D4D4D;" vertex="1" parent="UD2QmH18qQvcPj85lfm4-1">
          <mxGeometry x="1860" y="-820" width="1050" height="820" as="geometry" />
        </mxCell>
        <mxCell id="UD2QmH18qQvcPj85lfm4-3" value="" style="verticalLabelPosition=bottom;shadow=0;dashed=0;align=center;html=1;verticalAlign=top;strokeWidth=1;shape=mxgraph.mockup.graphics.simpleIcon;strokeColor=#999999;fillColor=#ffffff;rounded=0;labelBackgroundColor=none;fontFamily=Verdana;fontSize=12;fontColor=#000000;" vertex="1" parent="UD2QmH18qQvcPj85lfm4-1">
          <mxGeometry x="1860" y="-730" width="1050" height="200" as="geometry" />
        </mxCell>
        <mxCell id="UD2QmH18qQvcPj85lfm4-4" value="" style="rounded=0;whiteSpace=wrap;html=1;strokeColor=#B3B3B3;fillColor=#CCCCCC;" vertex="1" parent="UD2QmH18qQvcPj85lfm4-1">
          <mxGeometry x="1860" y="-820" width="1050" height="90" as="geometry" />
        </mxCell>
        <mxCell id="UD2QmH18qQvcPj85lfm4-5" value="" style="rounded=0;whiteSpace=wrap;html=1;strokeColor=#808080;" vertex="1" parent="UD2QmH18qQvcPj85lfm4-1">
          <mxGeometry x="2070" y="-530" width="610" height="530" as="geometry" />
        </mxCell>
        <mxCell id="UD2QmH18qQvcPj85lfm4-6" value="" style="group" vertex="1" connectable="0" parent="UD2QmH18qQvcPj85lfm4-1">
          <mxGeometry x="1910" y="-440" width="120" height="270" as="geometry" />
        </mxCell>
        <mxCell id="UD2QmH18qQvcPj85lfm4-7" value="" style="rounded=1;whiteSpace=wrap;html=1;strokeColor=none;fillColor=#999999;" vertex="1" parent="UD2QmH18qQvcPj85lfm4-6">
          <mxGeometry x="30" width="90" height="20" as="geometry" />
        </mxCell>
        <mxCell id="UD2QmH18qQvcPj85lfm4-8" value="" style="rounded=1;whiteSpace=wrap;html=1;strokeColor=none;fillColor=#999999;" vertex="1" parent="UD2QmH18qQvcPj85lfm4-6">
          <mxGeometry width="20" height="20" as="geometry" />
        </mxCell>
        <mxCell id="UD2QmH18qQvcPj85lfm4-9" value="" style="rounded=1;whiteSpace=wrap;html=1;strokeColor=none;fillColor=#999999;" vertex="1" parent="UD2QmH18qQvcPj85lfm4-6">
          <mxGeometry x="30" y="50" width="90" height="20" as="geometry" />
        </mxCell>
        <mxCell id="UD2QmH18qQvcPj85lfm4-10" value="" style="rounded=1;whiteSpace=wrap;html=1;strokeColor=none;fillColor=#999999;" vertex="1" parent="UD2QmH18qQvcPj85lfm4-6">
          <mxGeometry y="50" width="20" height="20" as="geometry" />
        </mxCell>
        <mxCell id="UD2QmH18qQvcPj85lfm4-11" value="" style="rounded=1;whiteSpace=wrap;html=1;strokeColor=none;fillColor=#999999;" vertex="1" parent="UD2QmH18qQvcPj85lfm4-6">
          <mxGeometry x="30" y="100" width="90" height="20" as="geometry" />
        </mxCell>
        <mxCell id="UD2QmH18qQvcPj85lfm4-12" value="" style="rounded=1;whiteSpace=wrap;html=1;strokeColor=none;fillColor=#999999;" vertex="1" parent="UD2QmH18qQvcPj85lfm4-6">
          <mxGeometry y="100" width="20" height="20" as="geometry" />
        </mxCell>
        <mxCell id="UD2QmH18qQvcPj85lfm4-13" value="" style="rounded=1;whiteSpace=wrap;html=1;strokeColor=none;fillColor=#999999;" vertex="1" parent="UD2QmH18qQvcPj85lfm4-6">
          <mxGeometry x="30" y="250" width="90" height="20" as="geometry" />
        </mxCell>
        <mxCell id="UD2QmH18qQvcPj85lfm4-14" value="" style="rounded=1;whiteSpace=wrap;html=1;strokeColor=none;fillColor=#999999;" vertex="1" parent="UD2QmH18qQvcPj85lfm4-6">
          <mxGeometry y="250" width="20" height="20" as="geometry" />
        </mxCell>
        <mxCell id="UD2QmH18qQvcPj85lfm4-15" value="" style="rounded=1;whiteSpace=wrap;html=1;strokeColor=none;fillColor=#999999;" vertex="1" parent="UD2QmH18qQvcPj85lfm4-6">
          <mxGeometry x="30" y="150" width="90" height="20" as="geometry" />
        </mxCell>
        <mxCell id="UD2QmH18qQvcPj85lfm4-16" value="" style="rounded=1;whiteSpace=wrap;html=1;strokeColor=none;fillColor=#999999;" vertex="1" parent="UD2QmH18qQvcPj85lfm4-6">
          <mxGeometry x="30" y="200" width="90" height="20" as="geometry" />
        </mxCell>
        <mxCell id="UD2QmH18qQvcPj85lfm4-17" value="" style="rounded=1;whiteSpace=wrap;html=1;strokeColor=none;fillColor=#999999;" vertex="1" parent="UD2QmH18qQvcPj85lfm4-1">
          <mxGeometry x="2720" y="-470" width="160" height="30" as="geometry" />
        </mxCell>
        <mxCell id="UD2QmH18qQvcPj85lfm4-18" value="" style="rounded=1;whiteSpace=wrap;html=1;strokeColor=none;fillColor=#B3B3B3;arcSize=3;container=0;" vertex="1" parent="UD2QmH18qQvcPj85lfm4-1">
          <mxGeometry x="2720" y="-410" width="160" height="110" as="geometry" />
        </mxCell>
        <mxCell id="UD2QmH18qQvcPj85lfm4-19" value="" style="rounded=1;whiteSpace=wrap;html=1;strokeColor=none;fillColor=#999999;arcSize=3;" vertex="1" parent="UD2QmH18qQvcPj85lfm4-1">
          <mxGeometry x="2720" y="-270" width="160" height="170" as="geometry" />
        </mxCell>
        <mxCell id="UD2QmH18qQvcPj85lfm4-20" value="" style="rounded=1;whiteSpace=wrap;html=1;strokeColor=none;fillColor=#E6E6E6;arcSize=0;" vertex="1" parent="UD2QmH18qQvcPj85lfm4-1">
          <mxGeometry x="2780" y="-270" width="100" height="30" as="geometry" />
        </mxCell>
        <mxCell id="UD2QmH18qQvcPj85lfm4-21" value="" style="rounded=1;whiteSpace=wrap;html=1;strokeColor=none;fillColor=#999999;" vertex="1" parent="UD2QmH18qQvcPj85lfm4-1">
          <mxGeometry x="2140" y="-790" width="400" height="40" as="geometry" />
        </mxCell>
        <mxCell id="UD2QmH18qQvcPj85lfm4-22" value="" style="rounded=1;whiteSpace=wrap;html=1;strokeColor=none;fillColor=#999999;arcSize=50;" vertex="1" parent="UD2QmH18qQvcPj85lfm4-1">
          <mxGeometry x="2710" y="-790" width="80" height="40" as="geometry" />
        </mxCell>
        <mxCell id="UD2QmH18qQvcPj85lfm4-23" value="" style="rounded=1;whiteSpace=wrap;html=1;strokeColor=none;fillColor=#CCCCCC;arcSize=2;container=0;" vertex="1" parent="UD2QmH18qQvcPj85lfm4-1">
          <mxGeometry x="2105" y="-420" width="540" height="390" as="geometry" />
        </mxCell>
        <mxCell id="UD2QmH18qQvcPj85lfm4-25" value="" style="rounded=1;whiteSpace=wrap;html=1;strokeColor=none;fillColor=#B3B3B3;arcSize=31;container=0;" vertex="1" parent="UD2QmH18qQvcPj85lfm4-1">
          <mxGeometry x="2105" y="-490" width="85" height="40" as="geometry" />
        </mxCell>
        <mxCell id="UD2QmH18qQvcPj85lfm4-26" value="" style="rounded=1;whiteSpace=wrap;html=1;strokeColor=none;fillColor=#999999;arcSize=23;" vertex="1" parent="UD2QmH18qQvcPj85lfm4-1">
          <mxGeometry x="2050" y="-640" width="80" height="80" as="geometry" />
        </mxCell>
        <mxCell id="UD2QmH18qQvcPj85lfm4-27" value="" style="rounded=1;whiteSpace=wrap;html=1;strokeColor=none;fillColor=#B3B3B3;arcSize=17;container=0;" vertex="1" parent="UD2QmH18qQvcPj85lfm4-1">
          <mxGeometry x="2140" y="-625" width="80" height="20" as="geometry" />
        </mxCell>
        <mxCell id="UD2QmH18qQvcPj85lfm4-28" value="" style="rounded=1;whiteSpace=wrap;html=1;strokeColor=none;fillColor=#B3B3B3;arcSize=17;container=0;" vertex="1" parent="UD2QmH18qQvcPj85lfm4-1">
          <mxGeometry x="2140" y="-595" width="50" height="20" as="geometry" />
        </mxCell>
        <mxCell id="UD2QmH18qQvcPj85lfm4-29" value="" style="rounded=1;whiteSpace=wrap;html=1;strokeColor=none;fillColor=#B3B3B3;arcSize=17;container=0;" vertex="1" parent="UD2QmH18qQvcPj85lfm4-1">
          <mxGeometry x="2660" y="-575" width="20" height="20" as="geometry" />
        </mxCell>
        <mxCell id="UD2QmH18qQvcPj85lfm4-30" value="" style="rounded=1;whiteSpace=wrap;html=1;strokeColor=none;fillColor=#B3B3B3;arcSize=17;container=0;" vertex="1" parent="UD2QmH18qQvcPj85lfm4-1">
          <mxGeometry x="2690" y="-575" width="20" height="20" as="geometry" />
        </mxCell>
        <mxCell id="UD2QmH18qQvcPj85lfm4-31" value="" style="rounded=1;whiteSpace=wrap;html=1;strokeColor=none;fillColor=#B3B3B3;arcSize=17;container=0;" vertex="1" parent="UD2QmH18qQvcPj85lfm4-1">
          <mxGeometry x="2720" y="-575" width="20" height="20" as="geometry" />
        </mxCell>
        <mxCell id="UD2QmH18qQvcPj85lfm4-32" value="" style="rounded=1;whiteSpace=wrap;html=1;strokeColor=none;fillColor=#B3B3B3;arcSize=17;container=0;" vertex="1" parent="UD2QmH18qQvcPj85lfm4-1">
          <mxGeometry x="2755" y="-575" width="20" height="20" as="geometry" />
        </mxCell>
        <mxCell id="bf9NnhyVD7pwBHw3paqd-0" value="" style="rounded=1;whiteSpace=wrap;html=1;strokeColor=none;fillColor=#B3B3B3;arcSize=31;container=0;" vertex="1" parent="UD2QmH18qQvcPj85lfm4-1">
          <mxGeometry x="2210" y="-490" width="85" height="40" as="geometry" />
        </mxCell>
        <mxCell id="bf9NnhyVD7pwBHw3paqd-1" value="" style="rounded=1;whiteSpace=wrap;html=1;strokeColor=none;fillColor=#B3B3B3;arcSize=22;container=0;" vertex="1" parent="UD2QmH18qQvcPj85lfm4-1">
          <mxGeometry x="2310" y="-490" width="340" height="40" as="geometry" />
        </mxCell>
      </root>
    </mxGraphModel>
  </diagram>
  <diagram name="halaman list penguana" id="V1TLTTCD6_O5LeZNz-ah">
    <mxGraphModel dx="1330" dy="1203" grid="1" gridSize="10" guides="1" tooltips="1" connect="1" arrows="1" fold="1" page="1" pageScale="1" pageWidth="850" pageHeight="1100" math="0" shadow="0">
      <root>
        <mxCell id="-QoqGQYllEb_GZ9CA9jk-0" />
        <mxCell id="-QoqGQYllEb_GZ9CA9jk-1" parent="-QoqGQYllEb_GZ9CA9jk-0" />
        <mxCell id="-QoqGQYllEb_GZ9CA9jk-2" value="" style="rounded=0;whiteSpace=wrap;html=1;strokeColor=#4D4D4D;" vertex="1" parent="-QoqGQYllEb_GZ9CA9jk-1">
          <mxGeometry x="1210" y="30" width="1050" height="820" as="geometry" />
        </mxCell>
        <mxCell id="-QoqGQYllEb_GZ9CA9jk-4" value="" style="rounded=0;whiteSpace=wrap;html=1;strokeColor=#B3B3B3;fillColor=#CCCCCC;" vertex="1" parent="-QoqGQYllEb_GZ9CA9jk-1">
          <mxGeometry x="1210" y="30" width="1050" height="90" as="geometry" />
        </mxCell>
        <mxCell id="-QoqGQYllEb_GZ9CA9jk-5" value="" style="rounded=0;whiteSpace=wrap;html=1;strokeColor=#808080;" vertex="1" parent="-QoqGQYllEb_GZ9CA9jk-1">
          <mxGeometry x="1420" y="120" width="610" height="730" as="geometry" />
        </mxCell>
        <mxCell id="-QoqGQYllEb_GZ9CA9jk-6" value="" style="group" vertex="1" connectable="0" parent="-QoqGQYllEb_GZ9CA9jk-1">
          <mxGeometry x="1250" y="200" width="120" height="270" as="geometry" />
        </mxCell>
        <mxCell id="-QoqGQYllEb_GZ9CA9jk-7" value="" style="rounded=1;whiteSpace=wrap;html=1;strokeColor=none;fillColor=#999999;" vertex="1" parent="-QoqGQYllEb_GZ9CA9jk-6">
          <mxGeometry x="30" width="90" height="20" as="geometry" />
        </mxCell>
        <mxCell id="-QoqGQYllEb_GZ9CA9jk-8" value="" style="rounded=1;whiteSpace=wrap;html=1;strokeColor=none;fillColor=#999999;" vertex="1" parent="-QoqGQYllEb_GZ9CA9jk-6">
          <mxGeometry width="20" height="20" as="geometry" />
        </mxCell>
        <mxCell id="-QoqGQYllEb_GZ9CA9jk-9" value="" style="rounded=1;whiteSpace=wrap;html=1;strokeColor=none;fillColor=#999999;" vertex="1" parent="-QoqGQYllEb_GZ9CA9jk-6">
          <mxGeometry x="30" y="50" width="90" height="20" as="geometry" />
        </mxCell>
        <mxCell id="-QoqGQYllEb_GZ9CA9jk-10" value="" style="rounded=1;whiteSpace=wrap;html=1;strokeColor=none;fillColor=#999999;" vertex="1" parent="-QoqGQYllEb_GZ9CA9jk-6">
          <mxGeometry y="50" width="20" height="20" as="geometry" />
        </mxCell>
        <mxCell id="-QoqGQYllEb_GZ9CA9jk-11" value="" style="rounded=1;whiteSpace=wrap;html=1;strokeColor=none;fillColor=#999999;" vertex="1" parent="-QoqGQYllEb_GZ9CA9jk-6">
          <mxGeometry x="30" y="100" width="90" height="20" as="geometry" />
        </mxCell>
        <mxCell id="-QoqGQYllEb_GZ9CA9jk-12" value="" style="rounded=1;whiteSpace=wrap;html=1;strokeColor=none;fillColor=#999999;" vertex="1" parent="-QoqGQYllEb_GZ9CA9jk-6">
          <mxGeometry y="100" width="20" height="20" as="geometry" />
        </mxCell>
        <mxCell id="-QoqGQYllEb_GZ9CA9jk-13" value="" style="rounded=1;whiteSpace=wrap;html=1;strokeColor=none;fillColor=#999999;" vertex="1" parent="-QoqGQYllEb_GZ9CA9jk-6">
          <mxGeometry x="30" y="250" width="90" height="20" as="geometry" />
        </mxCell>
        <mxCell id="-QoqGQYllEb_GZ9CA9jk-14" value="" style="rounded=1;whiteSpace=wrap;html=1;strokeColor=none;fillColor=#999999;" vertex="1" parent="-QoqGQYllEb_GZ9CA9jk-6">
          <mxGeometry y="250" width="20" height="20" as="geometry" />
        </mxCell>
        <mxCell id="-QoqGQYllEb_GZ9CA9jk-15" value="" style="rounded=1;whiteSpace=wrap;html=1;strokeColor=none;fillColor=#999999;" vertex="1" parent="-QoqGQYllEb_GZ9CA9jk-6">
          <mxGeometry x="30" y="150" width="90" height="20" as="geometry" />
        </mxCell>
        <mxCell id="-QoqGQYllEb_GZ9CA9jk-16" value="" style="rounded=1;whiteSpace=wrap;html=1;strokeColor=none;fillColor=#999999;" vertex="1" parent="-QoqGQYllEb_GZ9CA9jk-6">
          <mxGeometry x="30" y="200" width="90" height="20" as="geometry" />
        </mxCell>
        <mxCell id="-QoqGQYllEb_GZ9CA9jk-17" value="" style="rounded=1;whiteSpace=wrap;html=1;strokeColor=none;fillColor=#999999;" vertex="1" parent="-QoqGQYllEb_GZ9CA9jk-1">
          <mxGeometry x="2070" y="160" width="160" height="30" as="geometry" />
        </mxCell>
        <mxCell id="-QoqGQYllEb_GZ9CA9jk-18" value="" style="rounded=1;whiteSpace=wrap;html=1;strokeColor=none;fillColor=#B3B3B3;arcSize=3;container=0;" vertex="1" parent="-QoqGQYllEb_GZ9CA9jk-1">
          <mxGeometry x="2070" y="220" width="160" height="110" as="geometry" />
        </mxCell>
        <mxCell id="-QoqGQYllEb_GZ9CA9jk-19" value="" style="rounded=1;whiteSpace=wrap;html=1;strokeColor=none;fillColor=#999999;arcSize=3;" vertex="1" parent="-QoqGQYllEb_GZ9CA9jk-1">
          <mxGeometry x="2070" y="360" width="160" height="170" as="geometry" />
        </mxCell>
        <mxCell id="-QoqGQYllEb_GZ9CA9jk-20" value="" style="rounded=1;whiteSpace=wrap;html=1;strokeColor=none;fillColor=#E6E6E6;arcSize=0;" vertex="1" parent="-QoqGQYllEb_GZ9CA9jk-1">
          <mxGeometry x="2130" y="360" width="100" height="30" as="geometry" />
        </mxCell>
        <mxCell id="-QoqGQYllEb_GZ9CA9jk-21" value="" style="rounded=1;whiteSpace=wrap;html=1;strokeColor=none;fillColor=#999999;" vertex="1" parent="-QoqGQYllEb_GZ9CA9jk-1">
          <mxGeometry x="1490" y="60" width="400" height="40" as="geometry" />
        </mxCell>
        <mxCell id="-QoqGQYllEb_GZ9CA9jk-22" value="" style="rounded=1;whiteSpace=wrap;html=1;strokeColor=none;fillColor=#999999;arcSize=50;" vertex="1" parent="-QoqGQYllEb_GZ9CA9jk-1">
          <mxGeometry x="2060" y="60" width="80" height="40" as="geometry" />
        </mxCell>
        <mxCell id="1Ye62DTxRKkgwiPPebBI-0" value="" style="group" vertex="1" connectable="0" parent="-QoqGQYllEb_GZ9CA9jk-1">
          <mxGeometry x="1870" y="170" width="80" height="20" as="geometry" />
        </mxCell>
        <mxCell id="-QoqGQYllEb_GZ9CA9jk-29" value="" style="rounded=1;whiteSpace=wrap;html=1;strokeColor=none;fillColor=#B3B3B3;arcSize=17;container=0;" vertex="1" parent="1Ye62DTxRKkgwiPPebBI-0">
          <mxGeometry width="20" height="20" as="geometry" />
        </mxCell>
        <mxCell id="-QoqGQYllEb_GZ9CA9jk-30" value="" style="rounded=1;whiteSpace=wrap;html=1;strokeColor=none;fillColor=#B3B3B3;arcSize=17;container=0;" vertex="1" parent="1Ye62DTxRKkgwiPPebBI-0">
          <mxGeometry x="30" width="20" height="20" as="geometry" />
        </mxCell>
        <mxCell id="-QoqGQYllEb_GZ9CA9jk-31" value="" style="rounded=1;whiteSpace=wrap;html=1;strokeColor=none;fillColor=#B3B3B3;arcSize=17;container=0;" vertex="1" parent="1Ye62DTxRKkgwiPPebBI-0">
          <mxGeometry x="60" width="20" height="20" as="geometry" />
        </mxCell>
        <mxCell id="1Ye62DTxRKkgwiPPebBI-4" value="" style="group" vertex="1" connectable="0" parent="-QoqGQYllEb_GZ9CA9jk-1">
          <mxGeometry x="1450" y="250" width="150" height="200" as="geometry" />
        </mxCell>
        <mxCell id="-QoqGQYllEb_GZ9CA9jk-23" value="" style="rounded=1;whiteSpace=wrap;html=1;strokeColor=none;fillColor=#CCCCCC;arcSize=2;container=0;" vertex="1" parent="1Ye62DTxRKkgwiPPebBI-4">
          <mxGeometry width="150" height="200" as="geometry" />
        </mxCell>
        <mxCell id="-QoqGQYllEb_GZ9CA9jk-26" value="" style="rounded=1;whiteSpace=wrap;html=1;strokeColor=none;fillColor=#999999;arcSize=50;" vertex="1" parent="1Ye62DTxRKkgwiPPebBI-4">
          <mxGeometry x="30" y="15" width="80" height="80" as="geometry" />
        </mxCell>
        <mxCell id="-QoqGQYllEb_GZ9CA9jk-27" value="" style="rounded=1;whiteSpace=wrap;html=1;strokeColor=none;fillColor=#B3B3B3;arcSize=17;container=0;" vertex="1" parent="1Ye62DTxRKkgwiPPebBI-4">
          <mxGeometry x="30" y="120" width="80" height="20" as="geometry" />
        </mxCell>
        <mxCell id="-QoqGQYllEb_GZ9CA9jk-28" value="" style="rounded=1;whiteSpace=wrap;html=1;strokeColor=none;fillColor=#B3B3B3;arcSize=17;container=0;" vertex="1" parent="1Ye62DTxRKkgwiPPebBI-4">
          <mxGeometry x="30" y="150" width="50" height="20" as="geometry" />
        </mxCell>
        <mxCell id="1Ye62DTxRKkgwiPPebBI-5" value="" style="group" vertex="1" connectable="0" parent="-QoqGQYllEb_GZ9CA9jk-1">
          <mxGeometry x="1650" y="250" width="150" height="200" as="geometry" />
        </mxCell>
        <mxCell id="1Ye62DTxRKkgwiPPebBI-6" value="" style="rounded=1;whiteSpace=wrap;html=1;strokeColor=none;fillColor=#CCCCCC;arcSize=2;container=0;" vertex="1" parent="1Ye62DTxRKkgwiPPebBI-5">
          <mxGeometry width="150" height="200" as="geometry" />
        </mxCell>
        <mxCell id="1Ye62DTxRKkgwiPPebBI-7" value="" style="rounded=1;whiteSpace=wrap;html=1;strokeColor=none;fillColor=#999999;arcSize=50;" vertex="1" parent="1Ye62DTxRKkgwiPPebBI-5">
          <mxGeometry x="30" y="15" width="80" height="80" as="geometry" />
        </mxCell>
        <mxCell id="1Ye62DTxRKkgwiPPebBI-8" value="" style="rounded=1;whiteSpace=wrap;html=1;strokeColor=none;fillColor=#B3B3B3;arcSize=17;container=0;" vertex="1" parent="1Ye62DTxRKkgwiPPebBI-5">
          <mxGeometry x="30" y="120" width="80" height="20" as="geometry" />
        </mxCell>
        <mxCell id="1Ye62DTxRKkgwiPPebBI-9" value="" style="rounded=1;whiteSpace=wrap;html=1;strokeColor=none;fillColor=#B3B3B3;arcSize=17;container=0;" vertex="1" parent="1Ye62DTxRKkgwiPPebBI-5">
          <mxGeometry x="30" y="150" width="50" height="20" as="geometry" />
        </mxCell>
        <mxCell id="1Ye62DTxRKkgwiPPebBI-10" value="" style="group" vertex="1" connectable="0" parent="-QoqGQYllEb_GZ9CA9jk-1">
          <mxGeometry x="1840" y="250" width="150" height="200" as="geometry" />
        </mxCell>
        <mxCell id="1Ye62DTxRKkgwiPPebBI-11" value="" style="rounded=1;whiteSpace=wrap;html=1;strokeColor=none;fillColor=#CCCCCC;arcSize=2;container=0;" vertex="1" parent="1Ye62DTxRKkgwiPPebBI-10">
          <mxGeometry width="150" height="200" as="geometry" />
        </mxCell>
        <mxCell id="1Ye62DTxRKkgwiPPebBI-12" value="" style="rounded=1;whiteSpace=wrap;html=1;strokeColor=none;fillColor=#999999;arcSize=50;" vertex="1" parent="1Ye62DTxRKkgwiPPebBI-10">
          <mxGeometry x="30" y="15" width="80" height="80" as="geometry" />
        </mxCell>
        <mxCell id="1Ye62DTxRKkgwiPPebBI-13" value="" style="rounded=1;whiteSpace=wrap;html=1;strokeColor=none;fillColor=#B3B3B3;arcSize=17;container=0;" vertex="1" parent="1Ye62DTxRKkgwiPPebBI-10">
          <mxGeometry x="30" y="120" width="80" height="20" as="geometry" />
        </mxCell>
        <mxCell id="1Ye62DTxRKkgwiPPebBI-14" value="" style="rounded=1;whiteSpace=wrap;html=1;strokeColor=none;fillColor=#B3B3B3;arcSize=17;container=0;" vertex="1" parent="1Ye62DTxRKkgwiPPebBI-10">
          <mxGeometry x="30" y="150" width="50" height="20" as="geometry" />
        </mxCell>
        <mxCell id="1Ye62DTxRKkgwiPPebBI-15" value="" style="group" vertex="1" connectable="0" parent="-QoqGQYllEb_GZ9CA9jk-1">
          <mxGeometry x="1450" y="500" width="150" height="200" as="geometry" />
        </mxCell>
        <mxCell id="1Ye62DTxRKkgwiPPebBI-16" value="" style="rounded=1;whiteSpace=wrap;html=1;strokeColor=none;fillColor=#CCCCCC;arcSize=2;container=0;" vertex="1" parent="1Ye62DTxRKkgwiPPebBI-15">
          <mxGeometry width="150" height="200" as="geometry" />
        </mxCell>
        <mxCell id="1Ye62DTxRKkgwiPPebBI-17" value="" style="rounded=1;whiteSpace=wrap;html=1;strokeColor=none;fillColor=#999999;arcSize=50;" vertex="1" parent="1Ye62DTxRKkgwiPPebBI-15">
          <mxGeometry x="30" y="15" width="80" height="80" as="geometry" />
        </mxCell>
        <mxCell id="1Ye62DTxRKkgwiPPebBI-18" value="" style="rounded=1;whiteSpace=wrap;html=1;strokeColor=none;fillColor=#B3B3B3;arcSize=17;container=0;" vertex="1" parent="1Ye62DTxRKkgwiPPebBI-15">
          <mxGeometry x="30" y="120" width="80" height="20" as="geometry" />
        </mxCell>
        <mxCell id="1Ye62DTxRKkgwiPPebBI-19" value="" style="rounded=1;whiteSpace=wrap;html=1;strokeColor=none;fillColor=#B3B3B3;arcSize=17;container=0;" vertex="1" parent="1Ye62DTxRKkgwiPPebBI-15">
          <mxGeometry x="30" y="150" width="50" height="20" as="geometry" />
        </mxCell>
        <mxCell id="1Ye62DTxRKkgwiPPebBI-20" value="" style="group" vertex="1" connectable="0" parent="-QoqGQYllEb_GZ9CA9jk-1">
          <mxGeometry x="1650" y="500" width="150" height="200" as="geometry" />
        </mxCell>
        <mxCell id="1Ye62DTxRKkgwiPPebBI-21" value="" style="rounded=1;whiteSpace=wrap;html=1;strokeColor=none;fillColor=#CCCCCC;arcSize=2;container=0;" vertex="1" parent="1Ye62DTxRKkgwiPPebBI-20">
          <mxGeometry width="150" height="200" as="geometry" />
        </mxCell>
        <mxCell id="1Ye62DTxRKkgwiPPebBI-22" value="" style="rounded=1;whiteSpace=wrap;html=1;strokeColor=none;fillColor=#999999;arcSize=50;" vertex="1" parent="1Ye62DTxRKkgwiPPebBI-20">
          <mxGeometry x="30" y="15" width="80" height="80" as="geometry" />
        </mxCell>
        <mxCell id="1Ye62DTxRKkgwiPPebBI-23" value="" style="rounded=1;whiteSpace=wrap;html=1;strokeColor=none;fillColor=#B3B3B3;arcSize=17;container=0;" vertex="1" parent="1Ye62DTxRKkgwiPPebBI-20">
          <mxGeometry x="30" y="120" width="80" height="20" as="geometry" />
        </mxCell>
        <mxCell id="1Ye62DTxRKkgwiPPebBI-24" value="" style="rounded=1;whiteSpace=wrap;html=1;strokeColor=none;fillColor=#B3B3B3;arcSize=17;container=0;" vertex="1" parent="1Ye62DTxRKkgwiPPebBI-20">
          <mxGeometry x="30" y="150" width="50" height="20" as="geometry" />
        </mxCell>
      </root>
    </mxGraphModel>
  </diagram>
  <diagram name="halaman list gup" id="XX-7EnwV5ZzSZn0t8c-n">
    <mxGraphModel dx="1641" dy="1374" grid="1" gridSize="10" guides="1" tooltips="1" connect="1" arrows="1" fold="1" page="1" pageScale="1" pageWidth="850" pageHeight="1100" math="0" shadow="0">
      <root>
        <mxCell id="8vE2NsOGbYAHGYCPxnff-0" />
        <mxCell id="8vE2NsOGbYAHGYCPxnff-1" parent="8vE2NsOGbYAHGYCPxnff-0" />
        <mxCell id="8vE2NsOGbYAHGYCPxnff-2" value="" style="rounded=0;whiteSpace=wrap;html=1;strokeColor=#4D4D4D;" vertex="1" parent="8vE2NsOGbYAHGYCPxnff-1">
          <mxGeometry x="1210" y="30" width="1050" height="820" as="geometry" />
        </mxCell>
        <mxCell id="8vE2NsOGbYAHGYCPxnff-3" value="" style="rounded=0;whiteSpace=wrap;html=1;strokeColor=#B3B3B3;fillColor=#CCCCCC;" vertex="1" parent="8vE2NsOGbYAHGYCPxnff-1">
          <mxGeometry x="1210" y="30" width="1050" height="90" as="geometry" />
        </mxCell>
        <mxCell id="8vE2NsOGbYAHGYCPxnff-4" value="" style="rounded=0;whiteSpace=wrap;html=1;strokeColor=#808080;" vertex="1" parent="8vE2NsOGbYAHGYCPxnff-1">
          <mxGeometry x="1420" y="120" width="610" height="730" as="geometry" />
        </mxCell>
        <mxCell id="8vE2NsOGbYAHGYCPxnff-5" value="" style="group" vertex="1" connectable="0" parent="8vE2NsOGbYAHGYCPxnff-1">
          <mxGeometry x="1250" y="200" width="120" height="270" as="geometry" />
        </mxCell>
        <mxCell id="8vE2NsOGbYAHGYCPxnff-6" value="" style="rounded=1;whiteSpace=wrap;html=1;strokeColor=none;fillColor=#999999;" vertex="1" parent="8vE2NsOGbYAHGYCPxnff-5">
          <mxGeometry x="30" width="90" height="20" as="geometry" />
        </mxCell>
        <mxCell id="8vE2NsOGbYAHGYCPxnff-7" value="" style="rounded=1;whiteSpace=wrap;html=1;strokeColor=none;fillColor=#999999;" vertex="1" parent="8vE2NsOGbYAHGYCPxnff-5">
          <mxGeometry width="20" height="20" as="geometry" />
        </mxCell>
        <mxCell id="8vE2NsOGbYAHGYCPxnff-8" value="" style="rounded=1;whiteSpace=wrap;html=1;strokeColor=none;fillColor=#999999;" vertex="1" parent="8vE2NsOGbYAHGYCPxnff-5">
          <mxGeometry x="30" y="50" width="90" height="20" as="geometry" />
        </mxCell>
        <mxCell id="8vE2NsOGbYAHGYCPxnff-9" value="" style="rounded=1;whiteSpace=wrap;html=1;strokeColor=none;fillColor=#999999;" vertex="1" parent="8vE2NsOGbYAHGYCPxnff-5">
          <mxGeometry y="50" width="20" height="20" as="geometry" />
        </mxCell>
        <mxCell id="8vE2NsOGbYAHGYCPxnff-10" value="" style="rounded=1;whiteSpace=wrap;html=1;strokeColor=none;fillColor=#999999;" vertex="1" parent="8vE2NsOGbYAHGYCPxnff-5">
          <mxGeometry x="30" y="100" width="90" height="20" as="geometry" />
        </mxCell>
        <mxCell id="8vE2NsOGbYAHGYCPxnff-11" value="" style="rounded=1;whiteSpace=wrap;html=1;strokeColor=none;fillColor=#999999;" vertex="1" parent="8vE2NsOGbYAHGYCPxnff-5">
          <mxGeometry y="100" width="20" height="20" as="geometry" />
        </mxCell>
        <mxCell id="8vE2NsOGbYAHGYCPxnff-12" value="" style="rounded=1;whiteSpace=wrap;html=1;strokeColor=none;fillColor=#999999;" vertex="1" parent="8vE2NsOGbYAHGYCPxnff-5">
          <mxGeometry x="30" y="250" width="90" height="20" as="geometry" />
        </mxCell>
        <mxCell id="8vE2NsOGbYAHGYCPxnff-13" value="" style="rounded=1;whiteSpace=wrap;html=1;strokeColor=none;fillColor=#999999;" vertex="1" parent="8vE2NsOGbYAHGYCPxnff-5">
          <mxGeometry y="250" width="20" height="20" as="geometry" />
        </mxCell>
        <mxCell id="8vE2NsOGbYAHGYCPxnff-14" value="" style="rounded=1;whiteSpace=wrap;html=1;strokeColor=none;fillColor=#999999;" vertex="1" parent="8vE2NsOGbYAHGYCPxnff-5">
          <mxGeometry x="30" y="150" width="90" height="20" as="geometry" />
        </mxCell>
        <mxCell id="8vE2NsOGbYAHGYCPxnff-15" value="" style="rounded=1;whiteSpace=wrap;html=1;strokeColor=none;fillColor=#999999;" vertex="1" parent="8vE2NsOGbYAHGYCPxnff-5">
          <mxGeometry x="30" y="200" width="90" height="20" as="geometry" />
        </mxCell>
        <mxCell id="8vE2NsOGbYAHGYCPxnff-16" value="" style="rounded=1;whiteSpace=wrap;html=1;strokeColor=none;fillColor=#999999;" vertex="1" parent="8vE2NsOGbYAHGYCPxnff-1">
          <mxGeometry x="2070" y="160" width="160" height="30" as="geometry" />
        </mxCell>
        <mxCell id="8vE2NsOGbYAHGYCPxnff-17" value="" style="rounded=1;whiteSpace=wrap;html=1;strokeColor=none;fillColor=#B3B3B3;arcSize=3;container=0;" vertex="1" parent="8vE2NsOGbYAHGYCPxnff-1">
          <mxGeometry x="2070" y="220" width="160" height="110" as="geometry" />
        </mxCell>
        <mxCell id="8vE2NsOGbYAHGYCPxnff-18" value="" style="rounded=1;whiteSpace=wrap;html=1;strokeColor=none;fillColor=#999999;arcSize=3;" vertex="1" parent="8vE2NsOGbYAHGYCPxnff-1">
          <mxGeometry x="2070" y="360" width="160" height="170" as="geometry" />
        </mxCell>
        <mxCell id="8vE2NsOGbYAHGYCPxnff-19" value="" style="rounded=1;whiteSpace=wrap;html=1;strokeColor=none;fillColor=#E6E6E6;arcSize=0;" vertex="1" parent="8vE2NsOGbYAHGYCPxnff-1">
          <mxGeometry x="2130" y="360" width="100" height="30" as="geometry" />
        </mxCell>
        <mxCell id="8vE2NsOGbYAHGYCPxnff-20" value="" style="rounded=1;whiteSpace=wrap;html=1;strokeColor=none;fillColor=#999999;" vertex="1" parent="8vE2NsOGbYAHGYCPxnff-1">
          <mxGeometry x="1490" y="60" width="400" height="40" as="geometry" />
        </mxCell>
        <mxCell id="8vE2NsOGbYAHGYCPxnff-21" value="" style="rounded=1;whiteSpace=wrap;html=1;strokeColor=none;fillColor=#999999;arcSize=50;" vertex="1" parent="8vE2NsOGbYAHGYCPxnff-1">
          <mxGeometry x="2060" y="60" width="80" height="40" as="geometry" />
        </mxCell>
        <mxCell id="8vE2NsOGbYAHGYCPxnff-22" value="" style="group" vertex="1" connectable="0" parent="8vE2NsOGbYAHGYCPxnff-1">
          <mxGeometry x="1870" y="170" width="80" height="20" as="geometry" />
        </mxCell>
        <mxCell id="8vE2NsOGbYAHGYCPxnff-23" value="" style="rounded=1;whiteSpace=wrap;html=1;strokeColor=none;fillColor=#B3B3B3;arcSize=17;container=0;" vertex="1" parent="8vE2NsOGbYAHGYCPxnff-22">
          <mxGeometry width="20" height="20" as="geometry" />
        </mxCell>
        <mxCell id="8vE2NsOGbYAHGYCPxnff-24" value="" style="rounded=1;whiteSpace=wrap;html=1;strokeColor=none;fillColor=#B3B3B3;arcSize=17;container=0;" vertex="1" parent="8vE2NsOGbYAHGYCPxnff-22">
          <mxGeometry x="30" width="20" height="20" as="geometry" />
        </mxCell>
        <mxCell id="8vE2NsOGbYAHGYCPxnff-25" value="" style="rounded=1;whiteSpace=wrap;html=1;strokeColor=none;fillColor=#B3B3B3;arcSize=17;container=0;" vertex="1" parent="8vE2NsOGbYAHGYCPxnff-22">
          <mxGeometry x="60" width="20" height="20" as="geometry" />
        </mxCell>
        <mxCell id="dPkZeToHYIm4Q6-QUGsa-2" value="" style="group" vertex="1" connectable="0" parent="8vE2NsOGbYAHGYCPxnff-1">
          <mxGeometry x="1450" y="250" width="220" height="210" as="geometry" />
        </mxCell>
        <mxCell id="8vE2NsOGbYAHGYCPxnff-27" value="" style="rounded=1;whiteSpace=wrap;html=1;strokeColor=none;fillColor=#CCCCCC;arcSize=2;container=0;" vertex="1" parent="dPkZeToHYIm4Q6-QUGsa-2">
          <mxGeometry width="220" height="210" as="geometry" />
        </mxCell>
        <mxCell id="8vE2NsOGbYAHGYCPxnff-29" value="" style="rounded=1;whiteSpace=wrap;html=1;strokeColor=none;fillColor=#B3B3B3;arcSize=17;container=0;" vertex="1" parent="dPkZeToHYIm4Q6-QUGsa-2">
          <mxGeometry x="30" y="130" width="140" height="20" as="geometry" />
        </mxCell>
        <mxCell id="8vE2NsOGbYAHGYCPxnff-30" value="" style="rounded=1;whiteSpace=wrap;html=1;strokeColor=none;fillColor=#B3B3B3;arcSize=17;container=0;" vertex="1" parent="dPkZeToHYIm4Q6-QUGsa-2">
          <mxGeometry x="30" y="170" width="50" height="20" as="geometry" />
        </mxCell>
        <mxCell id="dPkZeToHYIm4Q6-QUGsa-0" value="" style="verticalLabelPosition=bottom;shadow=0;dashed=0;align=center;html=1;verticalAlign=top;strokeWidth=1;shape=mxgraph.mockup.graphics.simpleIcon;strokeColor=#999999;fillColor=#ffffff;rounded=0;labelBackgroundColor=none;fontFamily=Verdana;fontSize=12;fontColor=#000000;" vertex="1" parent="dPkZeToHYIm4Q6-QUGsa-2">
          <mxGeometry x="10" y="10" width="200" height="80" as="geometry" />
        </mxCell>
        <mxCell id="8vE2NsOGbYAHGYCPxnff-28" value="" style="rounded=1;whiteSpace=wrap;html=1;strokeColor=none;fillColor=#999999;arcSize=50;" vertex="1" parent="dPkZeToHYIm4Q6-QUGsa-2">
          <mxGeometry x="22.5" y="52.5" width="65" height="65" as="geometry" />
        </mxCell>
        <mxCell id="dPkZeToHYIm4Q6-QUGsa-1" value="" style="rounded=1;whiteSpace=wrap;html=1;strokeColor=none;fillColor=#B3B3B3;arcSize=17;container=0;" vertex="1" parent="dPkZeToHYIm4Q6-QUGsa-2">
          <mxGeometry x="85" y="170" width="25" height="20" as="geometry" />
        </mxCell>
        <mxCell id="dPkZeToHYIm4Q6-QUGsa-3" value="" style="group" vertex="1" connectable="0" parent="8vE2NsOGbYAHGYCPxnff-1">
          <mxGeometry x="1740" y="250" width="220" height="210" as="geometry" />
        </mxCell>
        <mxCell id="dPkZeToHYIm4Q6-QUGsa-4" value="" style="rounded=1;whiteSpace=wrap;html=1;strokeColor=none;fillColor=#CCCCCC;arcSize=2;container=0;" vertex="1" parent="dPkZeToHYIm4Q6-QUGsa-3">
          <mxGeometry width="220" height="210" as="geometry" />
        </mxCell>
        <mxCell id="dPkZeToHYIm4Q6-QUGsa-5" value="" style="rounded=1;whiteSpace=wrap;html=1;strokeColor=none;fillColor=#B3B3B3;arcSize=17;container=0;" vertex="1" parent="dPkZeToHYIm4Q6-QUGsa-3">
          <mxGeometry x="30" y="130" width="140" height="20" as="geometry" />
        </mxCell>
        <mxCell id="dPkZeToHYIm4Q6-QUGsa-6" value="" style="rounded=1;whiteSpace=wrap;html=1;strokeColor=none;fillColor=#B3B3B3;arcSize=17;container=0;" vertex="1" parent="dPkZeToHYIm4Q6-QUGsa-3">
          <mxGeometry x="30" y="170" width="50" height="20" as="geometry" />
        </mxCell>
        <mxCell id="dPkZeToHYIm4Q6-QUGsa-7" value="" style="verticalLabelPosition=bottom;shadow=0;dashed=0;align=center;html=1;verticalAlign=top;strokeWidth=1;shape=mxgraph.mockup.graphics.simpleIcon;strokeColor=#999999;fillColor=#ffffff;rounded=0;labelBackgroundColor=none;fontFamily=Verdana;fontSize=12;fontColor=#000000;" vertex="1" parent="dPkZeToHYIm4Q6-QUGsa-3">
          <mxGeometry x="10" y="10" width="200" height="80" as="geometry" />
        </mxCell>
        <mxCell id="dPkZeToHYIm4Q6-QUGsa-8" value="" style="rounded=1;whiteSpace=wrap;html=1;strokeColor=none;fillColor=#999999;arcSize=50;" vertex="1" parent="dPkZeToHYIm4Q6-QUGsa-3">
          <mxGeometry x="22.5" y="52.5" width="65" height="65" as="geometry" />
        </mxCell>
        <mxCell id="dPkZeToHYIm4Q6-QUGsa-9" value="" style="rounded=1;whiteSpace=wrap;html=1;strokeColor=none;fillColor=#B3B3B3;arcSize=17;container=0;" vertex="1" parent="dPkZeToHYIm4Q6-QUGsa-3">
          <mxGeometry x="85" y="170" width="25" height="20" as="geometry" />
        </mxCell>
        <mxCell id="dPkZeToHYIm4Q6-QUGsa-10" value="" style="group" vertex="1" connectable="0" parent="8vE2NsOGbYAHGYCPxnff-1">
          <mxGeometry x="1450" y="540" width="220" height="210" as="geometry" />
        </mxCell>
        <mxCell id="dPkZeToHYIm4Q6-QUGsa-11" value="" style="rounded=1;whiteSpace=wrap;html=1;strokeColor=none;fillColor=#CCCCCC;arcSize=2;container=0;" vertex="1" parent="dPkZeToHYIm4Q6-QUGsa-10">
          <mxGeometry width="220" height="210" as="geometry" />
        </mxCell>
        <mxCell id="dPkZeToHYIm4Q6-QUGsa-12" value="" style="rounded=1;whiteSpace=wrap;html=1;strokeColor=none;fillColor=#B3B3B3;arcSize=17;container=0;" vertex="1" parent="dPkZeToHYIm4Q6-QUGsa-10">
          <mxGeometry x="30" y="130" width="140" height="20" as="geometry" />
        </mxCell>
        <mxCell id="dPkZeToHYIm4Q6-QUGsa-13" value="" style="rounded=1;whiteSpace=wrap;html=1;strokeColor=none;fillColor=#B3B3B3;arcSize=17;container=0;" vertex="1" parent="dPkZeToHYIm4Q6-QUGsa-10">
          <mxGeometry x="30" y="170" width="50" height="20" as="geometry" />
        </mxCell>
        <mxCell id="dPkZeToHYIm4Q6-QUGsa-14" value="" style="verticalLabelPosition=bottom;shadow=0;dashed=0;align=center;html=1;verticalAlign=top;strokeWidth=1;shape=mxgraph.mockup.graphics.simpleIcon;strokeColor=#999999;fillColor=#ffffff;rounded=0;labelBackgroundColor=none;fontFamily=Verdana;fontSize=12;fontColor=#000000;" vertex="1" parent="dPkZeToHYIm4Q6-QUGsa-10">
          <mxGeometry x="10" y="10" width="200" height="80" as="geometry" />
        </mxCell>
        <mxCell id="dPkZeToHYIm4Q6-QUGsa-15" value="" style="rounded=1;whiteSpace=wrap;html=1;strokeColor=none;fillColor=#999999;arcSize=50;" vertex="1" parent="dPkZeToHYIm4Q6-QUGsa-10">
          <mxGeometry x="22.5" y="52.5" width="65" height="65" as="geometry" />
        </mxCell>
        <mxCell id="dPkZeToHYIm4Q6-QUGsa-16" value="" style="rounded=1;whiteSpace=wrap;html=1;strokeColor=none;fillColor=#B3B3B3;arcSize=17;container=0;" vertex="1" parent="dPkZeToHYIm4Q6-QUGsa-10">
          <mxGeometry x="85" y="170" width="25" height="20" as="geometry" />
        </mxCell>
      </root>
    </mxGraphModel>
  </diagram>
  <diagram id="I310XjaIKK0841QBNTAO" name="halaman blog">
    <mxGraphModel dx="1330" dy="1203" grid="1" gridSize="10" guides="1" tooltips="1" connect="1" arrows="1" fold="1" page="1" pageScale="1" pageWidth="850" pageHeight="1100" math="0" shadow="0">
      <root>
        <mxCell id="0" />
        <mxCell id="1" parent="0" />
        <mxCell id="2NCAnYoi4sPiU-Cdkfkr-1" value="" style="rounded=0;whiteSpace=wrap;html=1;strokeColor=#4D4D4D;" vertex="1" parent="1">
          <mxGeometry x="1210" y="30" width="1050" height="820" as="geometry" />
        </mxCell>
        <mxCell id="2NCAnYoi4sPiU-Cdkfkr-3" value="" style="rounded=0;whiteSpace=wrap;html=1;strokeColor=#B3B3B3;fillColor=#CCCCCC;" vertex="1" parent="1">
          <mxGeometry x="1210" y="30" width="1050" height="90" as="geometry" />
        </mxCell>
        <mxCell id="2NCAnYoi4sPiU-Cdkfkr-4" value="" style="rounded=0;whiteSpace=wrap;html=1;strokeColor=#808080;" vertex="1" parent="1">
          <mxGeometry x="1340" y="120" width="800" height="730" as="geometry" />
        </mxCell>
        <mxCell id="2NCAnYoi4sPiU-Cdkfkr-20" value="" style="rounded=1;whiteSpace=wrap;html=1;strokeColor=none;fillColor=#999999;" vertex="1" parent="1">
          <mxGeometry x="1490" y="60" width="400" height="40" as="geometry" />
        </mxCell>
        <mxCell id="2NCAnYoi4sPiU-Cdkfkr-21" value="" style="rounded=1;whiteSpace=wrap;html=1;strokeColor=none;fillColor=#999999;arcSize=50;" vertex="1" parent="1">
          <mxGeometry x="2060" y="60" width="80" height="40" as="geometry" />
        </mxCell>
        <mxCell id="2NCAnYoi4sPiU-Cdkfkr-23" value="" style="rounded=1;whiteSpace=wrap;html=1;strokeColor=none;fillColor=#B3B3B3;arcSize=17;container=0;" vertex="1" parent="1">
          <mxGeometry x="1510" y="470" width="480" height="40" as="geometry" />
        </mxCell>
        <mxCell id="2NCAnYoi4sPiU-Cdkfkr-26" value="" style="rounded=1;whiteSpace=wrap;html=1;strokeColor=none;fillColor=#B3B3B3;arcSize=17;container=0;" vertex="1" parent="1">
          <mxGeometry x="1510" y="180" width="280" height="20" as="geometry" />
        </mxCell>
        <mxCell id="2NCAnYoi4sPiU-Cdkfkr-27" value="" style="rounded=1;whiteSpace=wrap;html=1;strokeColor=none;fillColor=#B3B3B3;arcSize=17;container=0;" vertex="1" parent="1">
          <mxGeometry x="1510" y="210" width="120" height="20" as="geometry" />
        </mxCell>
        <mxCell id="2NCAnYoi4sPiU-Cdkfkr-28" value="" style="rounded=1;whiteSpace=wrap;html=1;strokeColor=none;fillColor=#B3B3B3;arcSize=17;container=0;" vertex="1" parent="1">
          <mxGeometry x="1700" y="530" width="20" height="20" as="geometry" />
        </mxCell>
        <mxCell id="2NCAnYoi4sPiU-Cdkfkr-29" value="" style="rounded=1;whiteSpace=wrap;html=1;strokeColor=none;fillColor=#B3B3B3;arcSize=17;container=0;" vertex="1" parent="1">
          <mxGeometry x="1730" y="530" width="20" height="20" as="geometry" />
        </mxCell>
        <mxCell id="2NCAnYoi4sPiU-Cdkfkr-30" value="" style="rounded=1;whiteSpace=wrap;html=1;strokeColor=none;fillColor=#B3B3B3;arcSize=17;container=0;" vertex="1" parent="1">
          <mxGeometry x="1760" y="530" width="20" height="20" as="geometry" />
        </mxCell>
        <mxCell id="-43YF1d1ObmMxWp2cleU-1" value="" style="verticalLabelPosition=bottom;shadow=0;dashed=0;align=center;html=1;verticalAlign=top;strokeWidth=1;shape=mxgraph.mockup.graphics.simpleIcon;strokeColor=#999999;fillColor=#ffffff;rounded=0;labelBackgroundColor=none;fontFamily=Verdana;fontSize=12;fontColor=#000000;" vertex="1" parent="1">
          <mxGeometry x="1510" y="250" width="480" height="200" as="geometry" />
        </mxCell>
        <mxCell id="-43YF1d1ObmMxWp2cleU-5" value="" style="rounded=1;whiteSpace=wrap;html=1;strokeColor=none;fillColor=#B3B3B3;arcSize=17;container=0;" vertex="1" parent="1">
          <mxGeometry x="1500" y="620" width="280" height="20" as="geometry" />
        </mxCell>
        <mxCell id="-43YF1d1ObmMxWp2cleU-6" value="" style="rounded=1;whiteSpace=wrap;html=1;strokeColor=none;fillColor=#B3B3B3;arcSize=17;container=0;" vertex="1" parent="1">
          <mxGeometry x="1500" y="650" width="120" height="20" as="geometry" />
        </mxCell>
        <mxCell id="-43YF1d1ObmMxWp2cleU-7" value="" style="verticalLabelPosition=bottom;shadow=0;dashed=0;align=center;html=1;verticalAlign=top;strokeWidth=1;shape=mxgraph.mockup.graphics.simpleIcon;strokeColor=#999999;fillColor=#ffffff;rounded=0;labelBackgroundColor=none;fontFamily=Verdana;fontSize=12;fontColor=#000000;" vertex="1" parent="1">
          <mxGeometry x="1500" y="690" width="480" height="160" as="geometry" />
        </mxCell>
      </root>
    </mxGraphModel>
  </diagram>
</mxfile>
